<svg width="82" height="87" viewBox="0 0 82 87" fill="none" xmlns="http://www.w3.org/2000/svg">
<path d="M81.4225 42.9916C81.4199 42.1908 81.1165 41.391 80.6142 40.6934C80.1119 39.9958 80.6132 40.3926 80.6129 40.295C81.1106 39.5941 81.409 38.894 81.4061 37.9916C81.4015 36.5932 80.4988 35.2953 79.0938 34.4991C77.6928 33.7029 78.8933 34.1013 79.0918 33.8976C79.6914 33.294 80.0873 32.4959 80.0846 31.6951C80.0804 30.3943 78.9755 29.3979 77.4738 28.9029L77.2727 28.302C77.9696 27.6004 78.2677 26.7987 78.2648 25.9003C78.2605 24.5995 77.1553 23.5055 75.7549 22.9085C74.3546 22.3115 75.5551 22.7099 75.5544 22.5107C75.751 21.7093 75.7481 20.8109 75.3473 20.113C74.7418 18.9158 73.4424 18.1192 71.9417 17.925C70.4411 17.7307 71.5427 17.727 71.6393 17.4259C71.9372 16.5265 71.9342 15.6242 71.5292 14.8247C70.8248 13.2254 68.8222 12.4352 66.7209 12.5397C64.6197 12.6481 66.3218 12.3417 66.3212 12.1425C66.5168 11.0403 66.314 9.94333 65.7098 9.14451C64.7052 7.7494 62.8055 7.35323 60.9044 7.76187C59.0073 8.16654 60.5056 7.66162 60.505 7.4624C60.5001 5.96241 59.8946 4.76519 58.8919 3.96767C57.4902 2.97227 55.4912 3.27961 53.7916 4.38285C52.0961 5.49002 53.3932 4.38416 53.291 4.18527C52.5859 2.38677 51.1796 1.19218 49.5816 1.09582C48.9801 1.0978 48.3828 1.20132 47.7821 1.50017C47.1816 1.80292 47.4814 1.50116 47.3837 1.50148C46.482 0.50443 45.3785 -0.0935529 44.1796 0.011981C43.2812 0.0149288 42.3805 0.517886 41.6836 1.21938C40.9866 1.92089 41.2854 1.32224 41.1836 1.22102C40.3802 0.422869 39.3785 -0.0738672 38.2812 0.0313334C36.9804 0.0356012 35.7842 0.93797 34.9877 2.24135C34.1912 3.54477 34.5899 2.44188 34.3861 2.24332C33.5827 1.44518 32.5814 1.05004 31.5817 1.15092C29.9801 1.15617 28.6876 2.46122 27.8927 4.26464C27.0978 6.06806 27.5929 4.56641 27.3934 4.4655C25.589 3.36981 23.6896 3.07924 22.2905 4.0838C21.1912 4.78663 20.6955 6.08904 20.7004 7.58904C20.7053 9.08903 20.5025 7.98813 20.3029 7.89112C18.3016 7.49925 16.5021 7.90359 15.5067 9.30526C14.9078 10.108 14.7122 11.2063 14.915 12.3072C15.1179 13.4082 14.8148 12.706 14.5179 12.707C12.3184 12.6126 10.4186 13.4196 9.72467 15.0235C9.32886 15.8256 9.33181 16.724 9.63165 17.6254C9.93537 18.5229 9.63295 18.0239 9.33251 18.1264C7.73157 18.3309 6.53501 19.1356 5.94134 20.3367C5.64319 21.1385 5.54816 21.9396 5.74999 22.7358C5.95184 23.5359 5.75098 23.0366 5.55208 23.1349C4.15566 23.741 3.15927 24.8419 3.06194 26.1431C3.06489 27.0415 3.36829 27.8413 4.0698 28.5382L3.87256 29.1404C2.3742 29.6453 1.27589 30.6489 1.28016 31.9497C1.28279 32.7505 1.58619 33.5503 2.28737 34.1456C2.98856 34.7449 2.39024 34.5437 2.28934 34.7472C0.893899 35.6502 -0.00454926 36.8563 3.8809e-05 38.2547C0.00462688 39.6531 0.306072 39.8553 0.808364 40.5529C1.31065 41.2504 0.80935 40.8536 0.809671 40.9513C0.311968 41.6521 0.0134829 42.3523 0.0164437 43.2547C0.0203782 44.4539 0.625549 45.5535 1.62821 46.351L1.63116 47.2495C1.0319 47.9507 0.53482 48.8547 0.538101 49.8547C0.541382 50.8547 1.24519 52.2508 2.34939 53.0479L2.55353 54.5473C2.15673 55.0486 1.95559 55.6509 1.95755 56.2484C1.96247 57.7484 3.16593 59.0453 4.96868 59.637C5.16954 60.1363 5.47196 60.6353 5.77404 61.0328C5.47556 61.733 5.47785 62.4321 5.7806 63.0327C6.18232 64.0314 7.18425 64.6297 8.4857 64.8247C8.68557 65.0232 8.88578 65.3234 9.08955 65.5219C9.0902 65.7211 8.98963 66.0222 8.99062 66.323C8.99587 67.9246 10.6021 69.3178 12.8022 69.6113C12.605 70.2136 12.6069 70.8112 12.8081 71.4121C13.3127 72.8089 15.1158 73.5062 17.0132 73.1991C16.9133 73.6995 16.9153 74.3011 17.0185 74.8007C17.5227 76.0999 19.1266 76.7938 20.8252 76.5891C22.5237 76.3843 21.1263 76.6896 21.2246 76.8885C21.5306 78.4891 23.5349 79.7794 25.9333 79.7715C28.3317 79.7636 27.9323 79.4641 28.7318 79.0631C29.334 79.2603 29.7331 79.4582 29.7331 79.4582L30.0338 79.4573C28.8465 83.0628 26.9516 85.3658 26.9516 85.3658C26.7534 85.6672 26.7547 86.0657 26.9546 86.2642C27.0565 86.3655 27.256 86.4625 27.3537 86.4621C27.4552 86.4618 27.7521 86.4608 27.853 86.2613C27.9542 86.1594 30.6423 82.7521 31.8251 77.7482C32.2183 76.1453 32.2137 74.7469 32.1121 73.548C32.0066 72.3492 32.5089 73.0467 32.7127 73.2453C35.1183 75.4366 38.2271 77.6256 41.3286 77.6154C44.4302 77.6053 47.6222 75.3956 49.9158 73.1888C52.2093 70.9821 50.5173 73.1869 50.5183 73.4877C50.5222 74.6869 50.5268 76.0892 50.8329 77.6858C51.9512 82.7838 54.7588 86.0714 54.8607 86.1727C54.9629 86.3716 55.1622 86.3709 55.3614 86.3703C55.5606 86.3696 55.6622 86.3693 55.7592 86.1697C56.0593 85.9695 56.0576 85.4695 55.7562 85.2713C55.7562 85.2713 53.85 82.8791 52.5373 79.2818C52.7366 79.2812 52.9351 79.0813 53.2356 78.9788C54.0377 79.3746 55.0387 79.6721 56.0387 79.6688C58.437 79.6609 60.3352 78.3539 60.7283 76.755C61.1215 75.1521 60.9266 76.4535 61.1258 76.4529C62.9269 76.5485 64.4249 75.9421 64.9206 74.6396C65.1182 74.139 65.1162 73.5374 64.9154 73.038C66.8148 73.3326 68.5157 72.6278 69.1087 71.2235C69.3059 70.6213 69.3039 70.0236 69.1027 69.4227C71.3009 69.1147 72.8979 67.711 72.8927 66.1094C72.8874 64.5078 72.8911 65.6094 72.7885 65.309C72.9871 65.1091 73.1853 64.8077 73.3878 64.6078C74.5863 64.4046 75.6859 63.7995 76.081 62.7982C76.3799 62.1956 76.276 61.4967 76.0745 60.7982C76.3736 60.2972 76.5715 59.8981 76.8707 59.3971C78.6695 58.7897 79.8644 57.4889 79.8595 55.9889C79.8546 54.4889 79.6564 54.7904 79.2524 54.2917L79.4467 52.7911C80.5456 51.9867 81.2409 50.7852 81.237 49.586C81.233 48.3868 80.8323 47.6889 80.1268 46.988L80.1239 46.0896C81.2229 45.2852 81.8169 44.1856 81.8129 42.9824L81.4225 42.9916ZM40.9337 76.3276C35.5353 76.3453 29.5091 68.2634 29.2068 67.866C27.7996 65.1714 27.6845 61.0702 27.6842 60.9726C27.6836 60.7734 27.6832 60.6718 27.4833 60.4732C27.3814 60.372 27.1819 60.275 26.9827 60.2757C24.9827 60.2822 24.2783 58.6829 24.0758 57.6836C23.7707 56.3838 23.4627 54.1856 24.0613 53.2852C24.2599 53.0853 24.4588 52.9831 24.7596 52.9821C25.158 52.9808 25.8622 53.2793 26.6668 55.6751C26.7694 55.9755 27.0669 56.1738 27.4689 56.0709C27.7697 56.0699 28.0691 55.6705 27.9666 55.37C27.2484 49.5716 28.2339 45.1701 30.9243 42.4623C31.4226 41.9606 31.9213 41.5606 32.5216 41.1562C33.1218 40.7558 33.6209 40.4534 34.2178 40.2522C34.8187 40.051 35.3181 39.8502 35.9151 39.6451C38.6119 38.937 41.7132 38.8253 44.414 39.3164C45.0159 39.416 45.5163 39.512 46.1145 39.7093C46.7167 39.9065 47.315 40.1038 47.9176 40.4026C48.5201 40.7014 49.1191 41.0979 49.6204 41.4986C50.1217 41.8954 50.3216 42.0979 50.6233 42.3938C52.2305 44.0877 53.2377 46.2836 53.645 48.9855C53.6479 49.8839 53.7528 50.8835 53.8534 51.7856L53.855 52.2856C53.8583 53.2856 53.8616 54.2856 53.666 55.3879C53.667 55.6886 53.8675 56.0864 54.1683 56.0854C54.4691 56.0844 54.8672 55.9816 54.9678 55.6844C55.4628 54.1827 55.9605 53.4819 56.358 53.1798C56.7554 52.8777 56.5572 53.1791 56.6587 53.1788C57.8589 53.4756 57.8648 55.2765 57.7708 56.3744C57.6725 57.3747 57.3796 58.5749 56.781 59.4792C56.2826 59.9809 55.6823 60.3813 54.7836 60.2866C54.5844 60.2872 54.4829 60.2876 54.2843 60.4874C54.0857 60.6873 54.0861 60.7889 54.0867 60.9881L54.0877 61.2889C53.8931 62.6879 53.6985 64.091 53.3004 65.3931C53.0039 66.6948 52.4098 67.7944 51.8122 68.9996C49.9214 71.3066 45.3368 76.5209 40.9389 76.5353L40.9337 76.3276Z" fill="black"/>
</svg>
