<svg width="78" height="80" viewBox="0 0 78 80" fill="none" xmlns="http://www.w3.org/2000/svg">
<path d="M74.2725 24.513C74.5312 21.2035 73.7646 18.5458 71.977 16.5986C69.5464 13.9464 66.0056 13.419 64.4857 13.3224C64.3388 11.3931 63.5837 9.837 62.2596 8.68904C59.6114 6.38911 55.4825 6.39096 53.7133 6.51787C53.2864 4.98016 52.4546 3.87358 51.2611 3.22509C49.2458 2.1301 46.7787 2.66168 45.7095 2.97378C44.7743 1.31664 43.6305 0.351685 42.3015 0.0747437C40.9412 -0.202045 39.7829 0.352538 39.1943 0.725561C39.0029 0.737908 38.835 0.75799 38.6827 0.778021C38.5342 0.758977 38.3623 0.74001 38.1825 0.728881C37.5915 0.359728 36.4178 -0.187214 35.0711 0.0984666C33.7516 0.372327 32.6064 1.35656 31.6822 3.0198C30.6109 2.71472 28.1404 2.2033 26.1323 3.30754C24.9353 3.97163 24.1186 5.08366 23.7018 6.61633C21.9397 6.50102 17.8031 6.53413 15.1699 8.84354C13.8534 9.99626 13.1086 11.5691 12.9743 13.4914C11.4551 13.6057 7.9178 14.1486 5.50465 16.8167C3.72985 18.7717 2.98068 21.4344 3.26115 24.746C2.64167 25.2363 1.23574 26.5143 0.492371 28.5363C-0.460067 31.1292 -0.0288074 33.9872 1.77025 37.0322C1.23346 37.7253 0.149077 39.3891 0.335261 41.365C0.468861 42.7942 1.25437 44.0925 2.63695 45.1973C2.31933 46.0186 1.75531 47.9385 2.58163 49.7678C3.23488 51.2344 4.62115 52.3002 6.67014 52.9341C6.35324 53.9742 6.00771 55.8152 6.8641 57.285C7.39844 58.2247 8.31061 58.8389 9.58103 59.1159C9.44313 59.9445 9.37773 61.4447 10.2026 62.8327C10.9882 64.17 12.3897 65.0756 14.3521 65.53C14.696 66.7594 16.1294 70.2937 20.9755 69.7974C21.4476 70.8271 22.8571 73.0022 26.236 72.9911C26.7048 72.9895 27.2553 72.9291 27.9151 72.8059C27.2761 75.6791 26.4621 77.6115 25.4925 78.5444C25.3718 78.6658 25.302 78.8145 25.3026 78.9864C25.3031 79.1583 25.3622 79.3143 25.4837 79.435C25.715 79.6725 26.1252 79.6829 26.3627 79.4439C28.5939 77.2763 29.5357 71.4646 29.8591 68.8233C32.1037 70.7574 35.443 72.9769 38.8922 72.9656L38.943 72.9654C42.4039 72.9541 45.7168 70.7127 47.9487 68.764C48.2855 71.4035 49.2655 77.2011 51.5147 79.3613C51.6362 79.4703 51.7848 79.5401 51.945 79.5396C52.1169 79.539 52.2729 79.4682 52.3936 79.3467C52.5143 79.2252 52.5724 79.0649 52.5718 78.8969C52.5712 78.725 52.5004 78.5768 52.379 78.4561C51.415 77.5296 50.5884 75.6026 49.9188 72.7337C50.5676 72.8526 51.1185 72.9094 51.599 72.9079C54.9779 72.8968 56.3731 70.7125 56.8385 69.6798C61.6681 70.1248 63.0901 66.5889 63.4338 65.369C65.401 64.9016 66.7887 63.9869 67.5655 62.6445C68.3812 61.2512 68.306 59.7632 68.1626 58.9237C69.4234 58.6305 70.3315 58.0065 70.8675 57.0751C71.7024 55.5918 71.3449 53.7532 71.0329 52.7229C73.0816 52.0755 74.4491 51.0008 75.1005 49.5298C75.9148 47.699 75.3382 45.779 75.0152 44.9598C76.4022 43.8458 77.1675 42.5543 77.2917 41.1125C77.4649 39.1431 76.3696 37.4749 75.8283 36.7892C80.0236 29.6035 75.3925 25.3925 74.2685 24.5132L74.2725 24.513ZM61.5621 18.625C61.5107 18.4259 61.6389 18.2263 61.8419 18.1748C61.8614 18.1748 64.0004 17.656 65.6061 18.932C66.7575 19.8501 67.3331 21.4264 67.3129 23.6178C67.3135 23.8171 67.1422 23.9895 66.9352 23.9902C66.7242 23.9909 66.5635 23.8195 66.5628 23.6125C66.5877 21.671 66.1106 20.3054 65.1511 19.539C63.8782 18.512 62.0982 18.9084 62.0201 18.9204C61.8093 18.9601 61.6097 18.8436 61.57 18.6406L61.5621 18.625ZM59.0977 54.4733C59.148 54.3246 59.2961 54.2226 59.4563 54.2221C59.4953 54.2219 59.5344 54.2218 59.5774 54.2412C60.9696 54.7171 61.9578 54.6943 62.5186 54.1612C63.6362 53.1068 62.9047 50.3983 62.8968 50.3788C62.8652 50.2773 62.8844 50.1796 62.9349 50.0896C62.9854 49.9996 63.0633 49.9407 63.1531 49.917C63.3639 49.8655 63.5634 49.9743 63.6149 50.1772C63.6544 50.306 64.4651 53.3541 63.0282 54.7104C62.2493 55.4434 60.9996 55.5178 59.3298 54.953C59.1381 54.8833 59.028 54.6727 59.0977 54.4733ZM60.5273 38.9485C60.4957 38.847 60.5149 38.7493 60.5654 38.6593C60.6159 38.5693 60.6938 38.5104 60.7953 38.4867C60.8967 38.4551 60.9945 38.4743 61.0845 38.5248C61.1745 38.5753 61.2333 38.6532 61.2571 38.7547C61.2769 38.8249 61.7318 40.5617 60.7465 41.4673C60.0299 42.1181 58.7603 42.1222 57.0277 41.4795C56.9377 41.4407 56.8555 41.3785 56.8161 41.2809C56.7767 41.1795 56.7764 41.0897 56.8152 40.9919C56.8733 40.8433 57.0136 40.753 57.1659 40.7525C57.205 40.7523 57.2558 40.7522 57.2949 40.7716C58.7264 41.3059 59.7577 41.3533 60.2446 40.9103C60.7938 40.4202 60.6378 39.3309 60.5389 38.9484L60.5273 38.9485ZM67.1197 39.7276C67.1584 39.6377 67.2402 39.5671 67.33 39.5355C68.6682 39.0624 69.5056 38.2979 69.842 37.2578C70.6539 34.677 68.1815 31.1929 68.1618 31.1617C68.0401 30.9902 68.0824 30.7635 68.2499 30.6418C68.3201 30.5908 68.3903 30.5711 68.4685 30.5708C68.5896 30.5704 68.6991 30.6208 68.7776 30.73C68.8875 30.8898 71.4893 34.5492 70.5693 37.4858C70.1633 38.7684 69.1663 39.6896 67.5978 40.2456C67.4066 40.3165 67.1875 40.2079 67.1166 40.0167C67.085 39.9269 67.0847 39.8176 67.1351 39.7276L67.1197 39.7276ZM22.6389 67.0027C20.9257 66.3091 20.526 63.5604 20.5259 63.5291C20.494 63.33 20.6457 63.1381 20.8448 63.1062L20.8956 63.106C21.0753 63.1054 21.2476 63.2455 21.2678 63.4251C21.2678 63.4447 21.6153 65.7834 22.9178 66.3103C23.5984 66.5776 24.4686 66.3053 25.4933 65.5011C25.653 65.3717 25.8914 65.3982 26.0248 65.5697C26.1542 65.7294 26.1276 65.9678 25.9562 66.1012C24.6977 67.0858 23.5815 67.398 22.6311 67.0222L22.6389 67.0027ZM52.5364 59.4944C52.4635 61.0649 51.719 62.7588 50.3421 64.5328C50.0814 64.854 49.3576 65.708 48.318 66.7114C48.17 66.8525 48.057 66.931 48.0375 66.9506C48.0181 66.9702 48.0064 66.9819 48.0064 66.9819C48.0064 66.9819 47.9558 67.0329 47.948 67.0524C45.705 69.1692 42.3343 71.692 38.9437 71.7031L38.893 71.7033C35.5024 71.7144 32.1152 69.2138 29.8779 67.1312C29.8583 67.1 29.8269 67.0728 29.8074 67.0611L29.7681 67.0105C29.7681 67.0105 29.6585 66.921 29.4978 66.7809C28.1733 65.504 27.3496 64.4676 27.33 64.4482C26.0236 62.7533 25.3191 61.1345 25.2362 59.6659C25.2361 59.6464 25.4089 57.556 24.9332 55.4169C24.7826 54.769 24.5578 54.1173 24.3684 53.5399C23.9345 52.2601 23.5321 51.0543 23.8176 49.9518C24.4757 49.3286 24.9129 48.0263 24.0168 46.3731C24.0709 45.0135 24.2899 43.9034 24.3794 43.7821C24.4183 43.7507 24.469 43.7232 24.5275 43.68L24.5664 43.6486C25.194 43.2364 26.8428 42.1529 26.8166 40.1412C28.1695 40.5274 30.5497 40.9181 32.5066 39.6812C34.1126 38.6564 35.0673 36.7625 35.3279 34.043C35.3671 34.0741 35.4179 34.1013 35.4766 34.1323L35.5275 34.1634C35.6763 34.2645 35.8367 34.3538 35.9893 34.4314C36.3493 34.6217 36.7092 34.7572 37.0688 34.8576C37.538 34.9849 38.038 34.995 38.5107 35.0013L38.6006 35.001C39.21 35.0185 39.8506 35.0281 40.4517 34.8738C41.0216 34.7313 41.5989 34.4794 42.0977 34.138L42.1367 34.1066C42.1952 34.0673 42.2576 34.0359 42.3082 34.0045C42.5867 36.7224 43.5539 38.6098 45.1665 39.624C47.1315 40.8559 49.509 40.4496 50.8593 40.0467C50.8464 42.0585 52.4905 43.1312 53.1208 43.5393C53.1912 43.5782 53.2421 43.6171 53.2813 43.6404C53.4304 43.8508 53.6256 44.9909 53.7 46.2601C52.8149 47.9232 53.2605 49.2225 53.9227 49.8375C54.2154 50.9381 53.8209 52.1464 53.3954 53.4291C53.2059 54.0078 52.9893 54.6609 52.843 55.3098C52.4196 57.2331 52.5274 59.1194 52.5676 59.4709L52.5364 59.4944ZM26.0597 21.5111C25.7987 21.7502 23.5286 23.9686 23.8836 26.1901C24.0871 27.4786 25.1726 28.5648 27.0935 29.4296C27.2147 29.48 27.2932 29.5774 27.3443 29.6905C27.3838 29.8115 27.3842 29.9404 27.3338 30.0499C27.233 30.2807 26.9365 30.3911 26.7135 30.2902C24.4797 29.2859 23.2175 27.9619 22.9505 26.3338C22.4998 23.5071 25.3116 20.9158 25.4324 20.8061C25.6232 20.6336 25.9201 20.6443 26.1044 20.8429C26.1828 20.9325 26.234 21.0535 26.2266 21.1824C26.227 21.3113 26.1688 21.4209 26.0675 21.511L26.0597 21.5111ZM42.4105 15.3363C42.239 15.4462 42.0006 15.4079 41.8907 15.2481C40.6938 13.5802 39.4136 12.7368 38.0621 12.7412C35.7731 12.7487 34.0115 15.1764 33.9415 15.2742C33.821 15.4465 33.5907 15.4863 33.4223 15.3658C33.25 15.2452 33.2102 15.0149 33.3307 14.8465C33.4085 14.7252 35.3801 12.0117 38.0714 12.0029C39.673 11.9976 41.1643 12.9419 42.5104 14.8164C42.632 14.9879 42.5898 15.2146 42.4223 15.3362L42.4105 15.3363ZM53.6649 26.0924C54.0091 23.8725 51.7206 21.6691 51.4581 21.4277C51.2662 21.2565 51.2457 20.9597 51.4247 20.756C51.5142 20.6541 51.6429 20.5951 51.7757 20.5946C51.8851 20.5943 51.9946 20.633 52.0847 20.7147C52.2062 20.8237 55.0349 23.3965 54.6028 26.226C54.3581 27.8557 53.1008 29.1918 50.8658 30.2071C50.6279 30.3094 50.3463 30.2088 50.244 29.9708C50.1928 29.8616 50.1846 29.7327 50.2311 29.6115C50.2697 29.4903 50.3593 29.4001 50.4802 29.3489C52.3992 28.4716 53.4738 27.3782 53.6687 26.0885L53.6649 26.0924ZM51.7746 65.4778C51.8329 65.3995 51.9226 65.3484 52.0241 65.3364L52.0749 65.3362C52.153 65.336 52.2352 65.3669 52.3056 65.4136C53.3474 66.2188 54.2075 66.4855 54.8863 66.2059C56.1854 65.6704 56.5175 63.3294 56.5174 63.3099C56.548 63.1106 56.735 62.9577 56.9383 62.9882C57.1493 63.0188 57.2905 63.2058 57.26 63.4091C57.2601 63.4403 56.8785 66.1994 55.1698 66.8965C54.2218 67.2785 53.0997 66.9736 51.8387 65.9972C51.6781 65.8688 51.6461 65.6385 51.7667 65.4662L51.7746 65.4778ZM9.42439 31.3546C9.42439 31.3546 6.95545 34.8822 7.78421 37.4616C8.11574 38.4996 8.96982 39.2585 10.3111 39.7228C10.4011 39.7538 10.4834 39.8238 10.5227 39.9135C10.5621 40.0033 10.5741 40.1048 10.5432 40.2025C10.4735 40.3942 10.2551 40.5043 10.0635 40.4346C8.49138 39.889 7.48054 38.9625 7.07397 37.6944C6.13468 34.7677 8.71251 31.0874 8.82128 30.9269C8.89126 30.8251 9.01217 30.7661 9.12934 30.7657C9.20747 30.7655 9.27785 30.7848 9.34832 30.8353C9.5206 30.9559 9.56042 31.1862 9.43987 31.3546L9.42439 31.3546ZM17.4171 41.0511C17.9069 41.4909 18.9301 41.4368 20.358 40.893C20.557 40.8221 20.7683 40.9229 20.8392 41.1102C20.8786 41.1999 20.8711 41.3093 20.8402 41.3993C20.8092 41.4892 20.7196 41.5598 20.6299 41.5992C18.9015 42.2533 17.6438 42.2691 16.9111 41.6114C15.9199 40.7162 16.3634 38.9726 16.3827 38.9022C16.4136 38.8005 16.4719 38.7222 16.5538 38.6712C16.6123 38.6397 16.6747 38.62 16.7451 38.6197C16.7763 38.6196 16.8036 38.6196 16.8466 38.6311C17.046 38.6813 17.1678 38.8918 17.1177 39.0912C17.1177 39.1029 16.7628 40.4635 17.4249 41.0511L17.4171 41.0511ZM14.0843 50.3394C14.1345 50.1674 14.2826 50.0575 14.4428 50.057C14.474 50.0569 14.5131 50.0567 14.5444 50.0684C14.646 50.0993 14.7243 50.1576 14.7754 50.2395C14.8264 50.3174 14.8346 50.4307 14.8154 50.5284C14.8155 50.5597 14.094 53.2808 15.2184 54.3162C15.7905 54.8456 16.771 54.8619 18.1601 54.3769C18.3512 54.3059 18.5703 54.4146 18.6413 54.6058C18.7122 54.8047 18.6036 55.016 18.4124 55.087C16.7541 55.6627 15.4921 55.5966 14.7125 54.8687C13.2666 53.5218 14.0691 50.4723 14.096 50.3395L14.0843 50.3394ZM10.6 24.1707C10.4008 24.1713 10.2284 24 10.2199 23.8008C10.1815 21.6096 10.7466 20.0374 11.8959 19.1039C12.7842 18.3823 13.8344 18.2186 14.5922 18.2162C15.1938 18.2142 15.612 18.3144 15.6511 18.3221C15.7528 18.3413 15.8311 18.3996 15.8822 18.4932C15.9332 18.5711 15.9531 18.6844 15.9222 18.7743C15.872 18.9737 15.6615 19.0955 15.4739 19.057C15.3957 19.0378 13.621 18.6647 12.3471 19.6962C11.3886 20.4689 10.9244 21.8415 10.962 23.7789C10.9627 23.9898 10.8031 24.1583 10.5844 24.159L10.6 24.1707Z" fill="black"/>
</svg>
