<svg width="84" height="68" viewBox="0 0 84 68" fill="none" xmlns="http://www.w3.org/2000/svg">
<path d="M83.2825 32.3499C83.277 30.6507 82.4703 28.8526 80.6639 27.1593C81.0597 26.3572 81.7573 24.6557 81.2517 22.9582C80.7471 21.5614 79.4427 20.4641 77.5417 19.6695C77.539 18.8687 77.5345 17.4703 76.7297 16.2738C75.9254 15.1748 74.5246 14.4802 72.7232 14.2869C72.5214 13.4868 72.0164 11.9884 70.6111 11.0946C69.5072 10.399 68.2095 10.1025 66.6088 10.4085C66.4073 9.70995 66.0017 8.71129 64.9014 7.9141C63.5974 6.91837 61.6983 6.7254 59.2979 7.33092C59.0971 6.83158 58.4929 6.03275 57.5928 5.5357C55.6911 4.54194 52.9893 4.94925 49.3969 6.5626C49.0965 6.66515 48.9998 6.96234 49.0008 7.26312C49.0008 7.26312 50.125 14.1579 46.3397 18.8739C46.2388 19.0735 46.1414 19.1753 46.1424 19.4761C46.1431 19.6753 46.343 19.8739 46.4448 19.9751C46.4448 19.9751 51.4534 22.5603 53.185 32.4531C53.3879 33.554 53.6922 34.6506 54.1952 35.5514C54.801 36.8502 55.3073 38.747 54.2109 40.3522C53.018 42.2545 50.9344 47.7614 49.9522 53.1672C48.0597 54.9742 44.865 57.5823 41.4673 57.7967C36.3667 58.1142 32.2541 53.5261 30.1424 50.533C29.1365 48.7355 28.4317 47.0386 28.9252 45.037C30.224 44.4311 32.3117 41.4242 32.4127 41.2247C32.9088 40.0239 33.0064 38.8243 33.0024 37.6211L33.0011 37.2227L32.9978 36.2227C32.989 33.5235 33.084 31.5232 34.9804 30.9154C35.4798 30.7145 36.081 30.611 36.678 30.4098C38.3755 29.9042 40.1747 29.3983 41.4715 28.1949C42.7681 26.8898 43.0649 25.6896 43.4574 23.8875C43.753 22.2849 44.8427 19.883 45.8378 18.3797C48.5242 14.4724 48.4085 8.97279 48.2997 6.76954C48.2971 5.96876 47.994 5.27054 47.6909 4.57233C46.6844 2.57562 45.4812 1.38036 43.9806 1.18608C42.8783 0.990477 41.9816 1.49342 41.4826 1.79584C39.8767 0.500304 38.1756 -0.0917184 36.4767 0.011456C34.4774 0.217237 32.9816 1.52293 32.3823 2.2241C29.8787 1.13071 27.7768 1.04 25.9823 1.7451C24.0869 2.64976 23.1897 4.25427 22.7943 5.15397C20.5941 4.86041 18.7946 5.26866 17.3999 6.37088C15.6037 7.77518 15.0133 9.98033 14.8137 11.0786C12.6138 10.8866 10.9163 11.3922 9.7167 12.4937C7.92149 14.1988 7.83243 16.8007 7.83603 17.8983C5.23707 18.7076 3.64341 19.9121 2.84852 21.7155C1.85574 23.918 2.76206 26.3174 3.168 27.4137C1.37148 28.7204 0.376406 30.2237 0.0815159 32.0254C-0.30872 34.5267 0.796483 36.8239 1.40069 37.6227C0.305321 39.5247 0.0141116 41.2289 0.519644 42.9265C1.02555 44.7256 2.22868 45.9209 2.92951 46.4186C1.53998 49.1223 1.24673 51.4241 2.05371 53.3199C2.95871 55.3169 4.96194 56.3104 5.96324 56.7055C4.9721 59.4079 4.979 61.5095 5.98326 62.807C7.48916 64.6029 10.4885 64.3939 11.6873 64.2883C12.2925 65.388 13.1936 66.1818 14.1946 66.4793C15.6962 66.9744 17.2965 66.5707 17.8934 66.3656C19.0952 67.1625 20.1981 67.5573 21.1981 67.554C22.1981 67.5507 23.4969 66.9449 23.9956 66.5448C24.5982 66.8436 25.799 67.3397 27.2987 67.2332C29.1964 67.0277 30.9933 65.8227 32.588 63.7158C34.778 60.9078 34.469 58.4088 33.3635 56.014C35.4707 57.7063 37.9749 58.9989 40.8733 58.9894L41.3733 58.9878C44.5718 58.778 47.468 56.8662 49.56 55.1601C49.2681 57.8603 49.3782 60.4615 50.0836 62.3576C50.3883 63.5558 51.8959 65.8517 55.1957 65.5401C55.7992 66.1396 57.5027 67.4309 59.5027 67.4243L60.0027 67.4227C61.6036 67.2182 62.8971 66.214 63.9928 64.4096C64.8919 64.6059 66.5964 65.0026 68.191 64.095C69.6884 63.2893 70.5815 61.6888 71.0736 59.2847C71.8744 59.2821 73.4704 58.7769 74.7669 57.4718C76.1604 55.9672 76.7551 53.8637 76.5467 51.0675C77.9434 50.563 81.4369 48.5515 80.4178 42.754C81.0178 42.252 82.2134 41.1465 82.5086 39.4463C82.7039 38.2465 82.5004 36.9463 81.598 35.7501C82.1979 35.2481 82.9912 34.1439 83.0878 32.6436L83.2825 32.3499ZM19.5268 46.2622C17.6314 47.1669 16.3355 48.6711 16.0406 50.4729C15.8441 51.2743 16.0459 52.0744 16.0488 52.9728C16.1537 53.9725 16.3565 55.0734 16.0593 56.172C16.0603 56.4728 15.7602 56.673 15.4594 56.674L15.2602 56.6746C14.9594 56.6756 14.7589 56.2779 14.7576 55.8755C14.9542 55.0741 14.8536 54.176 14.7487 53.1763C14.6442 52.2782 14.4417 51.2789 14.7392 50.2779C15.2317 47.9755 16.7258 46.1698 18.9213 45.065C24.3115 42.5473 23.4006 38.7495 23.2987 38.6522C23.2977 38.3514 23.398 37.9526 23.7961 37.8498C24.1942 37.7469 24.4956 37.949 24.5985 38.3472C24.5985 38.3472 25.8141 43.3432 19.5228 46.2622L19.5268 46.2622ZM18.9527 23.662C16.8527 24.1688 15.3567 25.373 14.5655 27.0748C14.267 27.775 14.1723 28.6777 14.0737 29.5764C14.077 30.5764 13.8814 31.6786 13.3846 32.6803C12.4918 34.3824 10.5934 35.5878 8.49676 35.8955C8.19598 35.8965 7.89455 35.6983 7.89323 35.2959C7.89224 34.9952 8.09015 34.5961 8.49249 34.5948C10.191 34.39 11.6881 33.4827 12.3827 32.082C12.7785 31.2799 12.8771 30.3811 12.8741 29.4787C12.8708 28.4788 12.9695 27.58 13.4662 26.5784C14.3577 24.4739 16.2551 22.9676 18.7535 22.4594C24.55 21.1396 24.4356 17.2416 24.4353 17.14C24.4343 16.8392 24.7338 16.4397 25.0345 16.4388C25.433 16.4375 25.7347 16.7373 25.7357 17.038C25.7357 17.038 25.854 22.1393 19.0582 23.6616L18.9527 23.662ZM27.4628 26.7357C27.3613 26.736 27.2636 26.7363 27.0641 26.6354C26.7626 26.4372 26.6636 26.0352 26.8619 25.7376C27.3596 25.0368 27.5558 24.1337 27.7521 23.2347C27.9484 22.3356 28.1443 21.335 28.6414 20.431C29.834 18.427 31.8301 17.2213 34.3291 16.9123C40.2254 16.2914 40.6154 12.4932 40.6147 12.29C40.6134 11.8916 40.9135 11.6875 41.312 11.6862C41.6127 11.6852 41.9145 11.985 41.9158 12.3834C41.9158 12.3834 41.4326 17.4866 34.4349 18.2088C32.334 18.4149 30.638 19.4205 29.7449 21.025C29.3488 21.7255 29.1483 22.527 28.952 23.426C28.7561 24.4267 28.5605 25.5289 27.8602 26.4296C27.7593 26.6292 27.5605 26.7314 27.3612 26.732L27.4628 26.7357ZM71.2483 51.7911L70.9475 51.7921C70.7483 51.7928 70.5487 51.6919 70.3449 51.4933C69.3397 49.895 67.6372 48.9006 65.6366 48.7079C58.6343 48.0317 58.1179 43.0334 58.1176 42.9318C58.1166 42.631 58.3145 42.2319 58.7169 42.2306C59.0176 42.2296 59.4167 42.4275 59.418 42.8299C59.4187 43.0291 59.8296 46.8285 65.7339 47.4108C68.2345 47.6018 70.3404 48.8957 71.4442 50.7904C71.6444 51.0906 71.4465 51.4897 71.248 51.6895L71.2483 51.7911ZM75.4241 44.6758C73.3226 44.6827 71.3193 43.6893 70.2168 42.1929C69.5146 41.2967 69.3118 40.1958 69.1053 39.1965C68.9032 38.2987 68.799 37.4983 68.2967 36.8007C67.2914 35.2024 65.589 34.208 63.5883 34.0154C56.5861 33.3391 56.0697 28.3408 56.0693 28.2392C56.0683 27.9384 56.2663 27.5393 56.6686 27.538C56.9694 27.537 57.3685 27.7349 57.3698 28.1373C57.3704 28.3365 57.8829 32.1356 63.6856 32.7182C66.1863 32.9092 68.2921 34.2031 69.3963 36.1995C69.8992 37.0963 70.1014 37.998 70.3039 38.9973C70.5061 39.8951 70.7083 40.7968 71.2106 41.4943C72.0153 42.6909 73.7171 43.4861 75.4163 43.4805C75.7171 43.4796 76.0188 43.7794 76.0198 44.0801C76.0208 44.3809 75.7213 44.7803 75.4206 44.7813L75.4241 44.6758ZM77.5931 35.4694C77.5941 35.7702 77.294 35.9704 76.9932 35.9714L76.8917 35.9717C76.5909 35.9727 76.2888 35.5753 76.389 35.1726C76.389 35.1726 76.7799 32.8705 75.776 31.6746C75.3759 31.1759 74.6718 30.8774 73.8753 30.9816C71.7737 30.9885 69.6729 29.9954 68.668 28.4987C67.9658 27.6025 67.763 26.5016 67.5565 25.5023C67.3543 24.6045 67.2502 23.8041 66.7479 23.1065C65.7426 21.5082 64.0401 20.5138 62.0395 20.3212C55.0372 19.6449 54.5208 14.6466 54.5205 14.545C54.5192 14.1466 54.7174 13.8451 55.1198 13.8438C55.4206 13.8428 55.8196 14.0407 55.821 14.4431C55.8216 14.6423 56.2325 18.4418 62.1368 19.024C64.6375 19.215 66.7433 20.5089 67.8475 22.5053C68.3504 23.4021 68.5526 24.3038 68.7551 25.3031C68.9573 26.2009 69.1595 27.1026 69.6617 27.8001C70.4665 28.9967 72.0667 29.7923 73.7699 29.7867C74.9691 29.7827 75.9704 30.1779 76.6722 30.9764C78.0762 32.671 77.5851 35.3718 77.5854 35.4734L77.5931 35.4694Z" fill="black"/>
</svg>
