<svg xmlns="http://www.w3.org/2000/svg" width="1024" height="576" viewBox="0 0 1024 576">
<defs><radialGradient id="g" cx="50%" cy="42%" r="65%"><stop offset="0%" stop-color="#e4d9c3"/><stop offset="100%" stop-color="#d3c6ac"/></radialGradient></defs>
<rect width="1024" height="576" fill="url(#g)"/>
<polygon points="500.0,282.5 500.0,289.2 327.2,202.8 327.2,196.1" fill="#c6bdac"/>
<polygon points="672.8,196.1 672.8,202.8 500.0,289.2 500.0,282.5" fill="#e0d6c2"/>
<polygon points="500.0,109.7 672.8,196.1 500.0,282.5 327.2,196.1" fill="#eee5d3"/>
<polygon points="856.4,363.5 856.4,370.2 716.0,300.0 716.0,293.3" fill="#c6bdac"/>
<polygon points="986.0,298.7 986.0,305.4 856.4,370.2 856.4,363.5" fill="#e0d6c2"/>
<polygon points="845.6,228.5 986.0,298.7 856.4,363.5 716.0,293.3" fill="#eee5d3"/>
<polygon points="143.6,363.5 143.6,370.2 14.0,305.4 14.0,298.7" fill="#c6bdac"/>
<polygon points="284.0,293.3 284.0,300.0 143.6,370.2 143.6,363.5" fill="#e0d6c2"/>
<polygon points="154.4,228.5 284.0,293.3 143.6,363.5 14.0,298.7" fill="#eee5d3"/>
<polygon points="510.8,514.7 510.8,521.4 359.6,445.8 359.6,439.1" fill="#c6bdac"/>
<polygon points="651.2,444.5 651.2,451.2 510.8,521.4 510.8,514.7" fill="#e0d6c2"/>
<polygon points="500.0,368.9 651.2,444.5 510.8,514.7 359.6,439.1" fill="#eee5d3"/>
<polygon points="500.0,358.1 500.0,364.8 397.4,313.5 397.4,306.8" fill="#caa38a"/>
<polygon points="602.6,306.8 602.6,313.5 500.0,364.8 500.0,358.1" fill="#e4b99c"/>
<polygon points="500.0,255.5 602.6,306.8 500.0,358.1 397.4,306.8" fill="#f2caaf"/>
<path d="M 543.2 213.6 L 467.6 251.4 L 467.6 283.8" fill="none" stroke="#a19a8c" stroke-width="16" stroke-linecap="round" stroke-linejoin="round"/>
<path d="M 543.2 213.6 L 467.6 251.4 L 467.6 283.8" fill="none" stroke="#e7ddc9" stroke-width="11" stroke-linecap="round" stroke-linejoin="round"/>
<path d="M 543.2 213.6 L 467.6 251.4 L 467.6 283.8" fill="none" stroke="#eee7d9" stroke-width="3.5" stroke-linecap="round" stroke-linejoin="round" transform="translate(0,-3.7)" opacity="0.85"/>
<path d="M 532.4 305.4 L 618.8 348.6 L 716.0 343.2 L 775.4 313.5" fill="none" stroke="#a19a8c" stroke-width="16" stroke-linecap="round" stroke-linejoin="round"/>
<path d="M 532.4 305.4 L 618.8 348.6 L 716.0 343.2 L 775.4 313.5" fill="none" stroke="#e7ddc9" stroke-width="11" stroke-linecap="round" stroke-linejoin="round"/>
<path d="M 532.4 305.4 L 618.8 348.6 L 716.0 343.2 L 775.4 313.5" fill="none" stroke="#eee7d9" stroke-width="3.5" stroke-linecap="round" stroke-linejoin="round" transform="translate(0,-3.7)" opacity="0.85"/>
<path d="M 467.6 305.4 L 381.2 348.6 L 262.4 332.4 L 208.4 305.4" fill="none" stroke="#a19a8c" stroke-width="16" stroke-linecap="round" stroke-linejoin="round"/>
<path d="M 467.6 305.4 L 381.2 348.6 L 262.4 332.4 L 208.4 305.4" fill="none" stroke="#e7ddc9" stroke-width="11" stroke-linecap="round" stroke-linejoin="round"/>
<path d="M 467.6 305.4 L 381.2 348.6 L 262.4 332.4 L 208.4 305.4" fill="none" stroke="#eee7d9" stroke-width="3.5" stroke-linecap="round" stroke-linejoin="round" transform="translate(0,-3.7)" opacity="0.85"/>
<path d="M 500.0 321.6 L 500.0 375.6 L 532.4 402.6" fill="none" stroke="#a19a8c" stroke-width="16" stroke-linecap="round" stroke-linejoin="round"/>
<path d="M 500.0 321.6 L 500.0 375.6 L 532.4 402.6" fill="none" stroke="#e7ddc9" stroke-width="11" stroke-linecap="round" stroke-linejoin="round"/>
<path d="M 500.0 321.6 L 500.0 375.6 L 532.4 402.6" fill="none" stroke="#eee7d9" stroke-width="3.5" stroke-linecap="round" stroke-linejoin="round" transform="translate(0,-3.7)" opacity="0.85"/>
<ellipse cx="505.4" cy="234.0" rx="8" ry="4.2" fill="#967830"/>
<ellipse cx="505.4" cy="232.5" rx="8" ry="4.2" fill="#e8b94a"/>
<ellipse cx="505.4" cy="231.5" rx="4.0" ry="2.1" fill="#f1d592"/>
<ellipse cx="473.0" cy="250.2" rx="8" ry="4.2" fill="#967830"/>
<ellipse cx="473.0" cy="248.7" rx="8" ry="4.2" fill="#e8b94a"/>
<ellipse cx="473.0" cy="247.7" rx="4.0" ry="2.1" fill="#f1d592"/>
<ellipse cx="467.6" cy="274.5" rx="8" ry="4.2" fill="#967830"/>
<ellipse cx="467.6" cy="273.0" rx="8" ry="4.2" fill="#e8b94a"/>
<ellipse cx="467.6" cy="272.0" rx="4.0" ry="2.1" fill="#f1d592"/>
<ellipse cx="570.2" cy="325.8" rx="8" ry="4.2" fill="#967830"/>
<ellipse cx="570.2" cy="324.3" rx="8" ry="4.2" fill="#e8b94a"/>
<ellipse cx="570.2" cy="323.3" rx="4.0" ry="2.1" fill="#f1d592"/>
<ellipse cx="645.8" cy="347.4" rx="8" ry="4.2" fill="#967830"/>
<ellipse cx="645.8" cy="345.9" rx="8" ry="4.2" fill="#e8b94a"/>
<ellipse cx="645.8" cy="344.9" rx="4.0" ry="2.1" fill="#f1d592"/>
<ellipse cx="737.6" cy="333.9" rx="8" ry="4.2" fill="#967830"/>
<ellipse cx="737.6" cy="332.4" rx="8" ry="4.2" fill="#e8b94a"/>
<ellipse cx="737.6" cy="331.4" rx="4.0" ry="2.1" fill="#f1d592"/>
<ellipse cx="429.8" cy="325.8" rx="8" ry="4.2" fill="#967830"/>
<ellipse cx="429.8" cy="324.3" rx="8" ry="4.2" fill="#e8b94a"/>
<ellipse cx="429.8" cy="323.3" rx="4.0" ry="2.1" fill="#f1d592"/>
<ellipse cx="327.2" cy="344.7" rx="8" ry="4.2" fill="#967830"/>
<ellipse cx="327.2" cy="343.2" rx="8" ry="4.2" fill="#e8b94a"/>
<ellipse cx="327.2" cy="342.2" rx="4.0" ry="2.1" fill="#f1d592"/>
<ellipse cx="240.8" cy="323.1" rx="8" ry="4.2" fill="#967830"/>
<ellipse cx="240.8" cy="321.6" rx="8" ry="4.2" fill="#e8b94a"/>
<ellipse cx="240.8" cy="320.6" rx="4.0" ry="2.1" fill="#f1d592"/>
<ellipse cx="500.0" cy="344.7" rx="8" ry="4.2" fill="#967830"/>
<ellipse cx="500.0" cy="343.2" rx="8" ry="4.2" fill="#e8b94a"/>
<ellipse cx="500.0" cy="342.2" rx="4.0" ry="2.1" fill="#f1d592"/>
<ellipse cx="510.8" cy="387.9" rx="8" ry="4.2" fill="#967830"/>
<ellipse cx="510.8" cy="386.4" rx="8" ry="4.2" fill="#e8b94a"/>
<ellipse cx="510.8" cy="385.4" rx="4.0" ry="2.1" fill="#f1d592"/>
<ellipse cx="500.0" cy="202.8" rx="91.8" ry="37.8" fill="#1a2a1e" opacity="0.12"/>
<polygon points="500.0,214.7 500.0,255.5 381.2,196.1 381.2,155.3" fill="#bfb6a4"/>
<polygon points="618.8,155.3 618.8,196.1 500.0,255.5 500.0,214.7" fill="#d8cfba"/>
<polygon points="500.0,95.9 618.8,155.3 500.0,214.7 381.2,155.3" fill="#ebe2cf"/>
<polygon points="500.0,217.5 500.0,222.8 365.0,155.3 365.0,150.0" fill="#186f6d"/>
<polygon points="635.0,150.0 635.0,155.3 500.0,222.8 500.0,217.5" fill="#1b807e"/>
<polygon points="500.0,82.5 635.0,150.0 500.0,217.5 365.0,150.0" fill="#47a3a0"/>
<polygon points="493.0,115.0 493.0,151.1 484.3,146.7 484.3,110.7" fill="#d0cabd"/>
<polygon points="501.6,110.7 501.6,146.7 493.0,151.1 493.0,115.0" fill="#e6e0d1"/>
<polygon points="493.0,106.4 501.6,110.7 493.0,115.0 484.3,110.7" fill="#f4eddf"/>
<polygon points="459.5,131.8 459.5,167.8 450.9,163.5 450.9,127.5" fill="#d0cabd"/>
<polygon points="468.1,127.5 468.1,163.5 459.5,167.8 459.5,131.8" fill="#e6e0d1"/>
<polygon points="459.5,123.2 468.1,127.5 459.5,131.8 450.9,127.5" fill="#f4eddf"/>
<polygon points="426.0,148.5 426.0,184.5 417.4,180.2 417.4,144.2" fill="#d0cabd"/>
<polygon points="434.7,144.2 434.7,180.2 426.0,184.5 426.0,148.5" fill="#e6e0d1"/>
<polygon points="426.0,139.9 434.7,144.2 426.0,148.5 417.4,144.2" fill="#f4eddf"/>
<polygon points="392.5,165.3 392.5,201.3 383.9,197.0 383.9,161.0" fill="#d0cabd"/>
<polygon points="401.2,161.0 401.2,197.0 392.5,201.3 392.5,165.3" fill="#e6e0d1"/>
<polygon points="392.5,156.6 401.2,161.0 392.5,165.3 383.9,161.0" fill="#f4eddf"/>
<polygon points="500.0,183.5 500.0,187.8 424.4,150.0 424.4,145.7" fill="#0f6664"/>
<polygon points="575.6,145.7 575.6,150.0 500.0,187.8 500.0,183.5" fill="#117371"/>
<polygon points="500.0,107.9 575.6,145.7 500.0,183.5 424.4,145.7" fill="#469b9a"/>
<ellipse cx="500.0" cy="142.8" rx="38" ry="19" fill="#1aa0a0"/>
<ellipse cx="492.0" cy="139.8" rx="14" ry="6" fill="#3fc0bd" opacity="0.7"/>
<ellipse cx="494.6" cy="120.6" rx="8" ry="4.2" fill="#967830"/>
<ellipse cx="494.6" cy="119.1" rx="8" ry="4.2" fill="#e8b94a"/>
<ellipse cx="494.6" cy="118.1" rx="4.0" ry="2.1" fill="#f1d592"/>
<ellipse cx="521.6" cy="144.9" rx="8" ry="4.2" fill="#967830"/>
<ellipse cx="521.6" cy="143.4" rx="8" ry="4.2" fill="#e8b94a"/>
<ellipse cx="521.6" cy="142.4" rx="4.0" ry="2.1" fill="#f1d592"/>
<ellipse cx="475.7" cy="146.2" rx="8" ry="4.2" fill="#967830"/>
<ellipse cx="475.7" cy="144.8" rx="8" ry="4.2" fill="#e8b94a"/>
<ellipse cx="475.7" cy="143.8" rx="4.0" ry="2.1" fill="#f1d592"/>
<g transform="translate(500.0,56.4)"><rect x="-64.0" y="-15" width="128" height="30" rx="4" fill="#fbf7ee" stroke="#d8cdb6" stroke-width="1"/><rect x="-64.0" y="11" width="128" height="4" rx="2" fill="#d8cdb6"/><text x="0" y="5" text-anchor="middle" font-family="Arial, sans-serif" font-size="14" font-weight="700" letter-spacing="1.2" fill="#22303f">THE STATE</text></g>
<ellipse cx="851.0" cy="297.3" rx="75.6" ry="29.7" fill="#1a2a1e" opacity="0.12"/>
<polygon points="856.4,315.5 856.4,341.9 753.8,290.6 753.8,264.2" fill="#b4ac9a"/>
<polygon points="948.2,269.6 948.2,296.0 856.4,341.9 856.4,315.5" fill="#ccc3af"/>
<polygon points="845.6,218.3 948.2,269.6 856.4,315.5 753.8,264.2" fill="#e0d7c4"/>
<polygon points="787.3,263.5 787.3,275.5 764.6,264.2 764.6,252.2" fill="#187270"/>
<polygon points="868.3,223.0 868.3,235.0 787.3,275.5 787.3,263.5" fill="#1c8380"/>
<polygon points="845.6,211.7 868.3,223.0 787.3,263.5 764.6,252.2" fill="#42a09e"/>
<polygon points="819.7,279.7 819.7,291.7 797.0,280.4 797.0,268.4" fill="#187270"/>
<polygon points="900.7,239.2 900.7,251.2 819.7,291.7 819.7,279.7" fill="#1c8380"/>
<polygon points="878.0,227.9 900.7,239.2 819.7,279.7 797.0,268.4" fill="#42a09e"/>
<polygon points="852.1,295.9 852.1,307.9 829.4,296.6 829.4,284.6" fill="#187270"/>
<polygon points="933.1,255.4 933.1,267.4 852.1,307.9 852.1,295.9" fill="#1c8380"/>
<polygon points="910.4,244.1 933.1,255.4 852.1,295.9 829.4,284.6" fill="#42a09e"/>
<polygon points="910.4,263.6 910.4,280.4 896.9,273.6 896.9,256.8" fill="#9c937f"/>
<polygon points="923.9,256.8 923.9,273.6 910.4,280.4 910.4,263.6" fill="#bcb19a"/>
<polygon points="910.4,250.1 923.9,256.8 910.4,263.6 896.9,256.8" fill="#d1c7b2"/>
<polygon points="721.4,302.6 721.4,312.2 699.8,301.4 699.8,291.8" fill="#b3622d"/>
<polygon points="743.0,291.8 743.0,301.4 721.4,312.2 721.4,302.6" fill="#ce7134"/>
<polygon points="721.4,281.0 743.0,291.8 721.4,302.6 699.8,291.8" fill="#e5925c"/>
<polygon points="743.0,316.4 743.0,328.4 721.4,317.6 721.4,305.6" fill="#a0812e"/>
<polygon points="764.6,305.6 764.6,317.6 743.0,328.4 743.0,316.4" fill="#b89535"/>
<polygon points="743.0,294.8 764.6,305.6 743.0,316.4 721.4,305.6" fill="#d2b25d"/>
<polygon points="705.2,322.7 705.2,331.1 683.6,320.3 683.6,311.9" fill="#b3622d"/>
<polygon points="726.8,311.9 726.8,320.3 705.2,331.1 705.2,322.7" fill="#ce7134"/>
<polygon points="705.2,301.1 726.8,311.9 705.2,322.7 683.6,311.9" fill="#e5925c"/>
<ellipse cx="829.4" cy="328.4" rx="15.1" ry="5.9" fill="#1a2a1e" opacity="0.16"/>
<path d="M 823.9 328.4 L 823.9 310.4 Q 829.4 306.8 834.9 310.4 L 834.9 328.4 Z" fill="#23364f"/>
<path d="M 824.8 323.0 L 824.8 311.9 Q 829.4 308.6 834.0 311.9 L 834.0 323.0 Z" fill="#e07b39"/>
<circle cx="829.4" cy="305.0" r="6.8" fill="#b07a52"/>
<path d="M 822.6 302.6 Q 829.4 296.0 836.2 302.6 L 836.2 305.0 Q 829.4 301.4 822.6 305.0 Z" fill="#1c2b3f"/>
<g transform="translate(910.4,222.0)"><rect x="-84.0" y="-15" width="168" height="30" rx="4" fill="#fbf7ee" stroke="#d8cdb6" stroke-width="1"/><rect x="-84.0" y="11" width="168" height="4" rx="2" fill="#d8cdb6"/><text x="0" y="5" text-anchor="middle" font-family="Arial, sans-serif" font-size="14" font-weight="700" letter-spacing="1.2" fill="#22303f">MANUFACTURERS</text></g>
<ellipse cx="149.0" cy="297.3" rx="70.2" ry="29.7" fill="#1a2a1e" opacity="0.12"/>
<polygon points="143.6,325.1 143.6,341.9 51.8,296.0 51.8,279.2" fill="#b1a997"/>
<polygon points="246.2,273.8 246.2,290.6 143.6,341.9 143.6,325.1" fill="#c9c0ac"/>
<polygon points="154.4,227.9 246.2,273.8 143.6,325.1 51.8,279.2" fill="#ddd4c1"/>
<polygon points="143.6,319.8 143.6,325.1 51.8,279.2 51.8,273.9" fill="#186f6d"/>
<polygon points="246.2,268.5 246.2,273.8 143.6,325.1 143.6,319.8" fill="#1b807e"/>
<polygon points="154.4,222.6 246.2,268.5 143.6,319.8 51.8,273.9" fill="#4ba5a3"/>
<ellipse cx="149.0" cy="275.7" rx="22.7" ry="8.1" fill="#1a2a1e" opacity="0.14"/>
<rect x="147.7" y="261.4" width="2.5" height="14.3" rx="2" fill="#8a6b4a"/>
<ellipse cx="149.0" cy="257.2" rx="10.9" ry="5.9" fill="#4f7d54"/>
<ellipse cx="146.5" cy="255.1" rx="6.7" ry="3.8" fill="#5d9061"/>
<ellipse cx="173.3" cy="287.9" rx="22.7" ry="8.1" fill="#1a2a1e" opacity="0.14"/>
<rect x="172.0" y="273.6" width="2.5" height="14.3" rx="2" fill="#8a6b4a"/>
<ellipse cx="173.3" cy="269.4" rx="10.9" ry="5.9" fill="#4f7d54"/>
<ellipse cx="170.8" cy="267.3" rx="6.7" ry="3.8" fill="#5d9061"/>
<ellipse cx="197.6" cy="300.0" rx="22.7" ry="8.1" fill="#1a2a1e" opacity="0.14"/>
<rect x="196.3" y="285.7" width="2.5" height="14.3" rx="2" fill="#8a6b4a"/>
<ellipse cx="197.6" cy="281.5" rx="10.9" ry="5.9" fill="#4f7d54"/>
<ellipse cx="195.1" cy="279.4" rx="6.7" ry="3.8" fill="#5d9061"/>
<ellipse cx="224.6" cy="323.0" rx="15.1" ry="5.9" fill="#1a2a1e" opacity="0.16"/>
<path d="M 219.1 323.0 L 219.1 305.0 Q 224.6 301.4 230.1 305.0 L 230.1 323.0 Z" fill="#5a4a6a"/>
<circle cx="224.6" cy="299.6" r="6.8" fill="#b07a52"/>
<path d="M 217.8 297.2 Q 224.6 290.6 231.4 297.2 L 231.4 299.6 Q 224.6 296.0 217.8 299.6 Z" fill="#483b54"/>
<g transform="translate(213.8,236.1)"><rect x="-70.0" y="-15" width="140" height="30" rx="4" fill="#fbf7ee" stroke="#d8cdb6" stroke-width="1"/><rect x="-70.0" y="11" width="140" height="4" rx="2" fill="#d8cdb6"/><text x="0" y="5" text-anchor="middle" font-family="Arial, sans-serif" font-size="14" font-weight="700" letter-spacing="1.2" fill="#22303f">EXPORTERS</text></g>
<ellipse cx="516.2" cy="437.7" rx="70.2" ry="24.3" fill="#1a2a1e" opacity="0.12"/>
<polygon points="548.6,452.0 548.6,468.8 510.8,449.9 510.8,433.1" fill="#b3622d"/>
<polygon points="597.2,427.7 597.2,444.5 548.6,468.8 548.6,452.0" fill="#ce7134"/>
<polygon points="559.4,408.8 597.2,427.7 548.6,452.0 510.8,433.1" fill="#e49058"/>
<polygon points="510.8,427.1 510.8,449.9 446.0,417.5 446.0,394.7" fill="#bcb4a2"/>
<polygon points="559.4,402.8 559.4,425.6 510.8,449.9 510.8,427.1" fill="#d5ccb8"/>
<polygon points="494.6,370.4 559.4,402.8 510.8,427.1 446.0,394.7" fill="#e9e0cd"/>
<ellipse cx="451.4" cy="425.3" rx="9" ry="5" fill="#2b2b2b"/>
<ellipse cx="491.9" cy="445.5" rx="9" ry="5" fill="#2b2b2b"/>
<ellipse cx="524.3" cy="461.7" rx="9" ry="5" fill="#2b2b2b"/>
<g transform="translate(564.8,379.2)"><rect x="-75.0" y="-15" width="150" height="30" rx="4" fill="#fbf7ee" stroke="#d8cdb6" stroke-width="1"/><rect x="-75.0" y="11" width="150" height="4" rx="2" fill="#d8cdb6"/><text x="0" y="5" text-anchor="middle" font-family="Arial, sans-serif" font-size="14" font-weight="700" letter-spacing="1.2" fill="#22303f">TRUCK FLEET</text></g>
<ellipse cx="500.0" cy="313.5" rx="54.0" ry="22.9" fill="#1a2a1e" opacity="0.13"/>
<polygon points="500.0,319.0 500.0,332.2 440.6,302.5 440.6,289.3" fill="#b3622d"/>
<polygon points="559.4,289.3 559.4,302.5 500.0,332.2 500.0,319.0" fill="#cb6f33"/>
<polygon points="500.0,259.6 559.4,289.3 500.0,319.0 440.6,289.3" fill="#e49058"/>
<ellipse cx="500.0" cy="288.3" rx="26" ry="13" fill="#a85c2a"/>
<ellipse cx="500.0" cy="286.3" rx="26" ry="13" fill="#e3884c"/>
<ellipse cx="500.0" cy="285.3" rx="11" ry="5.5" fill="#9c5627"/>
<line x1="500.0" y1="285.3" x2="524.0" y2="285.3" stroke="#9c5627" stroke-width="3"/>
<line x1="500.0" y1="285.3" x2="512.0" y2="294.8" stroke="#9c5627" stroke-width="3"/>
<line x1="500.0" y1="285.3" x2="488.0" y2="294.8" stroke="#9c5627" stroke-width="3"/>
<line x1="500.0" y1="285.3" x2="476.0" y2="285.3" stroke="#9c5627" stroke-width="3"/>
<line x1="500.0" y1="285.3" x2="488.0" y2="275.8" stroke="#9c5627" stroke-width="3"/>
<line x1="500.0" y1="285.3" x2="512.0" y2="275.8" stroke="#9c5627" stroke-width="3"/>
<ellipse cx="440.6" cy="280.9" rx="15.1" ry="5.9" fill="#1a2a1e" opacity="0.16"/>
<path d="M 435.1 280.9 L 435.1 262.9 Q 440.6 259.3 446.1 262.9 L 446.1 280.9 Z" fill="#23364f"/>
<path d="M 436.0 275.5 L 436.0 264.4 Q 440.6 261.1 445.2 264.4 L 445.2 275.5 Z" fill="#d8cdb6"/>
<circle cx="440.6" cy="257.5" r="6.8" fill="#b07a52"/>
<path d="M 433.8 255.1 Q 440.6 248.5 447.4 255.1 L 447.4 257.5 Q 440.6 253.9 433.8 257.5 Z" fill="#1c2b3f"/>
<g transform="translate(500.0,266.7)"><ellipse cx="0" cy="34" rx="30" ry="9" fill="#1a2a1e" opacity="0.12"/><circle cx="0" cy="0" r="32" fill="#fbf7ee" stroke="#e07b39" stroke-width="5"/><circle cx="0" cy="0" r="32" fill="none" stroke="#1f8f8c" stroke-width="5" stroke-dasharray="151 201" stroke-linecap="round" transform="rotate(-90)"/><text x="0" y="-2" text-anchor="middle" font-family="Arial" font-size="22" font-weight="800" fill="#22303f">30</text><text x="0" y="14" text-anchor="middle" font-family="Arial" font-size="9" font-weight="700" letter-spacing="2" fill="#5a6b6a">DAYS</text></g>
<ellipse cx="716.0" cy="440.4" rx="22.7" ry="8.1" fill="#1a2a1e" opacity="0.14"/>
<rect x="713.0" y="406.4" width="6.0" height="34.0" rx="2" fill="#8a6b4a"/>
<ellipse cx="716.0" cy="396.4" rx="26.0" ry="14.0" fill="#4f7d54"/>
<ellipse cx="710.0" cy="391.4" rx="16.0" ry="9.0" fill="#5d9061"/>
<ellipse cx="294.8" cy="143.4" rx="22.7" ry="8.1" fill="#1a2a1e" opacity="0.14"/>
<rect x="292.1" y="112.8" width="5.4" height="30.6" rx="2" fill="#8a6b4a"/>
<ellipse cx="294.8" cy="103.8" rx="23.4" ry="12.6" fill="#4f7d54"/>
<ellipse cx="289.4" cy="99.3" rx="14.4" ry="8.1" fill="#5d9061"/>
<ellipse cx="284.0" cy="429.6" rx="22.7" ry="8.1" fill="#1a2a1e" opacity="0.14"/>
<rect x="281.0" y="395.6" width="6.0" height="34.0" rx="2" fill="#8a6b4a"/>
<ellipse cx="284.0" cy="385.6" rx="26.0" ry="14.0" fill="#4f7d54"/>
<ellipse cx="278.0" cy="380.6" rx="16.0" ry="9.0" fill="#5d9061"/>
<!-- <g transform="translate(28,30)"><text x="0" y="0" font-family="Georgia, serif" font-size="27" font-weight="700" fill="#22303f">Unblocking the pipes</text><text x="0" y="26" font-family="Arial, sans-serif" font-size="14" fill="#54605a">Tanzania’s 30-day VAT refund rule returns trapped capital to business</text></g> -->
</svg>