<svg width="79" height="89" viewBox="0 0 79 89" fill="none" xmlns="http://www.w3.org/2000/svg">
<path d="M39.1335 60.8413C34.3201 60.7982 29.702 58.9944 26.1814 55.7924C22.6604 52.5865 20.4988 48.2092 20.1134 43.5235L19.5103 37.4126C19.5078 36.6347 19.4654 35.9788 19.431 35.3032C19.3796 34.3448 19.3281 33.3549 19.3569 32.3374C19.3984 31.4886 20.1119 30.8145 20.9804 30.796C21.8571 30.8088 22.5631 31.5019 22.5699 32.3544C22.5489 33.313 22.5962 34.24 22.6434 35.1434C22.6779 35.8661 22.7164 36.5771 22.7187 37.2528L23.3173 43.2145L23.3133 43.2184C23.6483 48.5091 26.7361 53.2643 31.4974 55.8103C36.2547 58.3561 42.0211 58.3372 46.7613 55.7602C51.5058 53.1831 54.5623 48.4077 54.8627 43.1149L55.4257 37.008C55.424 36.4895 55.4498 35.7901 55.4796 35.0671C55.5209 34.1634 55.5621 33.2283 55.5309 32.313C55.5175 31.8966 55.673 31.4915 55.9655 31.188C56.2581 30.8845 56.6636 30.7064 57.0899 30.6932C57.9784 30.6628 58.7205 31.344 58.7476 32.2121C58.7791 33.2451 58.7341 34.2392 58.693 35.198C58.6631 35.866 58.633 36.5182 58.6351 37.1389L58.0645 43.3951C57.7059 48.0871 55.565 52.4783 52.0651 55.7077C48.5612 58.9328 43.9465 60.7666 39.1335 60.8413Z" fill="black"/>
<path d="M39.1245 53.0592C37.1782 53.0381 35.2704 52.5061 33.6065 51.5176C33.2358 51.3067 32.9653 50.9658 32.8554 50.5615C32.7455 50.1573 32.8044 49.7289 33.0163 49.3707C33.4642 48.6188 34.4485 48.3602 35.218 48.7938C37.5913 50.2789 40.6393 50.2689 43.0068 48.7682C43.7734 48.3296 44.7594 48.5818 45.2082 49.3306C45.657 50.0795 45.3988 51.0429 44.6322 51.4815C42.9748 52.4808 41.0707 53.0253 39.1245 53.0592Z" fill="black"/>
<path d="M21.0607 50.3286C17.3732 50.2779 14.0646 48.1083 12.6182 44.7935C11.0547 41.318 11.7652 37.2691 14.4222 34.5021C14.7146 34.1751 15.1282 33.9813 15.5705 33.9641C16.0127 33.9508 16.4435 34.1105 16.7581 34.412C17.0768 34.7134 17.251 35.1293 17.2444 35.5614C17.2378 35.9936 17.0461 36.4028 16.7214 36.6946C14.9702 38.5428 14.5166 41.2314 15.5697 43.5302C16.6803 46.2215 19.6607 47.6889 22.5375 46.9645C23.3891 46.722 24.2753 47.1905 24.5314 48.0186C24.7874 48.8467 24.3118 49.7165 23.4641 49.9746C22.6848 50.2051 21.8729 50.326 21.0607 50.3286Z" fill="black"/>
<path d="M57.1782 50.2102C56.3579 50.2128 55.5453 50.1016 54.7644 49.8763C53.9111 49.6316 53.4216 48.761 53.6723 47.9274C53.9228 47.0937 54.814 46.6154 55.6672 46.8601C58.5528 47.5774 61.5315 46.0866 62.6204 43.3801C63.6463 41.0746 63.175 38.393 61.4158 36.5562C60.7946 35.9414 60.7993 34.9435 61.4327 34.3365C62.066 33.7255 63.0834 33.734 63.7086 34.3487C66.3716 37.0978 67.1086 41.13 65.58 44.6079C64.1675 47.94 60.8693 50.1391 57.1782 50.2102Z" fill="black"/>
<path d="M30.8756 68.352C30.3367 68.3538 29.8292 68.0883 29.5302 67.6454C29.2352 67.2024 29.1851 66.6408 29.4007 66.1569C29.5483 65.8224 29.6195 65.4568 29.6143 65.0915L29.5889 57.3641C29.5861 56.4959 30.3036 55.7903 31.1922 55.7874C32.0809 55.7845 32.803 56.4853 32.8058 57.3535L32.8312 65.0809C32.8378 65.8824 32.6756 66.6764 32.3482 67.4122C32.0928 67.9827 31.5149 68.3499 30.8756 68.352Z" fill="black"/>
<path d="M47.5388 68.4119C46.9196 68.414 46.3555 68.0622 46.0884 67.5171C45.7119 66.7444 45.5161 65.8964 45.5173 65.04L45.4919 57.3126C45.4891 56.4444 46.2065 55.7388 47.0952 55.7359C47.9838 55.733 48.7059 56.4338 48.7088 57.302L48.7341 65.0295C48.7314 65.4223 48.8211 65.811 48.9952 66.164C49.23 66.6504 49.1957 67.2201 48.9037 67.6729C48.6156 68.1295 48.1018 68.4101 47.555 68.4119L47.5388 68.4119Z" fill="black"/>
<path d="M18.668 88.1926L1.89602 88.2476C1.26872 88.2497 0.70055 87.898 0.437369 87.3449C0.170162 86.7919 0.256479 86.1395 0.653033 85.6706C1.23341 84.8516 1.75331 83.9895 2.20877 83.0962C3.75176 80.3058 5.86238 76.4842 8.90734 74.3096C9.62544 73.7965 10.6312 73.9504 11.1563 74.6479C11.6813 75.3494 11.5277 76.3321 10.8096 76.8452C8.35047 78.6054 6.43568 82.061 5.04459 84.5877L4.76076 85.0954L18.6576 85.0498C19.5463 85.0469 20.2684 85.7477 20.2712 86.6159C20.2741 87.4841 19.5567 88.1897 18.668 88.1926Z" fill="black"/>
<path d="M76.583 88.0026L59.8275 88.0576C58.9389 88.0605 58.2168 87.3597 58.2139 86.4915C58.2111 85.6233 58.9285 84.9177 59.8172 84.9148L73.6976 84.8692C73.6005 84.6967 73.5035 84.5242 73.3983 84.3438C71.9947 81.8341 70.0735 78.4107 67.623 76.6745L67.627 76.6706C67.2804 76.4282 67.05 76.0596 66.9843 75.6474C66.9146 75.2351 67.0177 74.8144 67.27 74.4757C67.7904 73.7747 68.7952 73.6182 69.5166 74.1265C72.5516 76.2773 74.6751 80.0654 76.2243 82.8299L76.2243 82.8339C76.6857 83.7281 77.2112 84.5906 77.801 85.4137C78.2086 85.8759 78.2993 86.5317 78.0397 87.0865C77.7761 87.6452 77.2104 88.0006 76.583 88.0026Z" fill="black"/>
<path d="M62.0542 65.8068C58.8052 65.8175 56.6549 61.236 56.1932 56.5546C55.7189 51.7161 57.0293 46.6518 60.4582 46.3265C61.4109 46.2331 63.2495 46.506 64.8108 49.2822L64.8068 49.2822C66.8063 53.2553 67.2555 57.8032 66.0712 62.0778C65.0718 65.0983 63.3206 65.7012 62.3678 65.7907C62.2633 65.8029 62.1588 65.8065 62.0542 65.8068ZM60.7741 49.4521C60.2597 49.5245 58.9809 51.9722 59.4051 56.2491C59.8211 60.4906 61.5372 62.6653 62.068 62.6635L62.076 62.6635C62.1484 62.6633 62.6179 62.3474 63.028 61.1125L63.0239 61.1086C63.5089 59.402 63.6519 57.6219 63.445 55.8626C63.0169 51.6172 61.3089 49.4503 60.7741 49.4521Z" fill="black"/>
<path d="M16.2943 65.953C16.1978 65.9533 16.1013 65.9497 16.0048 65.9421C12.5738 65.6391 11.2262 60.5835 11.6727 55.7423C11.8344 53.5496 12.4386 51.4105 13.4535 49.4507C15.0126 46.6564 16.8413 46.3753 17.7866 46.4665C21.2176 46.7696 22.5652 51.8252 22.1187 56.6664C21.953 58.8551 21.3488 60.9943 20.3379 62.9579C18.9347 65.4847 17.2997 65.9497 16.2943 65.953ZM14.8744 56.0223C14.4823 60.2978 15.7731 62.7411 16.2921 62.8101C16.8229 62.8084 18.5247 60.6263 18.9169 56.3783C19.309 52.1027 18.0182 49.6634 17.4992 49.5944C16.9685 49.5961 15.2666 51.7782 14.8744 56.0262L14.8744 56.0223Z" fill="black"/>
<path d="M15.2038 37.5843C14.9947 37.585 14.7855 37.5464 14.5922 37.4685C14.0607 37.2581 13.6892 36.7878 13.607 36.2342L12.4798 28.4829C12.402 28.0628 12.5052 27.6303 12.7614 27.2877C13.0176 26.945 13.4069 26.7159 13.837 26.6556C14.2671 26.5952 14.7057 26.7077 15.0484 26.9698C15.3911 27.2319 15.6135 27.6162 15.6631 28.0403L16.42 33.2235C23.2944 29.021 30.7798 25.8653 38.6225 23.8556C39.0363 23.7403 39.4788 23.7899 39.8534 23.9969C40.228 24.2 40.5026 24.5448 40.6165 24.9491C40.7304 25.3533 40.6755 25.7857 40.4596 26.1517C40.2477 26.5138 39.8907 26.7782 39.4768 26.8856C33.9727 28.3651 23.6294 31.6794 16.1803 37.2586L16.1763 37.2586C15.8995 37.4677 15.5577 37.5831 15.2038 37.5843Z" fill="black"/>
<path d="M14.9379 17.7263L11.7321 17.4461C11.7321 17.4461 12.0155 14.3455 12.2374 12.133C12.412 10.1996 13.5685 8.48293 15.3147 7.55396C22.786 3.91118 30.7882 1.42565 39.039 0.184679C40.1562 0.000295864 41.299 0.247977 42.23 0.873493C42.2864 0.904736 42.3388 0.939921 42.3912 0.979037C43.2578 1.60477 43.852 2.52999 44.0524 3.56642L44.3796 5.24288C44.8294 7.5278 43.3046 9.73673 40.9698 10.1844L40.4233 10.2962C40.0777 10.3641 39.7321 10.432 39.3866 10.5117L39.3826 10.5078C38.9687 10.6074 38.5262 10.5421 38.1595 10.3233C37.7929 10.1045 37.5304 9.75568 37.4325 9.34743C37.3307 8.93919 37.4056 8.5068 37.6297 8.15249C37.8577 7.79424 38.2188 7.54163 38.6367 7.44991C39.0224 7.36221 39.4042 7.29024 39.7859 7.21041L40.3325 7.10255L40.3365 7.10254C40.9352 6.98664 41.3275 6.4275 41.221 5.84249L40.8938 4.16211C40.8488 3.92653 40.7275 3.7148 40.546 3.55825C40.5057 3.53481 40.4694 3.50743 40.4332 3.48398C40.1913 3.30405 39.8814 3.23042 39.5841 3.28248C31.6824 4.46729 24.0177 6.83787 16.8592 10.3107C16.0564 10.7415 15.5242 11.5329 15.4427 12.4211C15.2208 14.6375 14.9379 17.7263 14.9379 17.7263Z" fill="black"/>
<path d="M62.9431 37.4276C62.5893 37.4288 62.2471 37.316 61.965 37.1087C54.4796 31.5783 44.1346 28.3318 38.6328 26.8887C37.0874 26.4892 35.5742 26.1327 34.1257 25.8271C31.8682 25.3317 30.4175 23.1797 30.8485 20.9585L31.1846 19.2288L31.1806 19.2288C31.3467 18.3758 32.1893 17.8152 33.0624 17.9773C33.9355 18.1355 34.5091 18.9586 34.3431 19.8116L34.007 21.5413C33.8922 22.0917 34.2478 22.6248 34.8031 22.7526C36.292 23.062 37.8615 23.4379 39.4591 23.8492L39.4632 23.8491C47.3068 25.8074 54.8046 28.9217 61.6978 33.0751L62.4207 27.8871C62.5385 27.0303 63.3488 26.4305 64.2298 26.5455C65.1067 26.6605 65.7246 27.452 65.6067 28.3088L64.5264 36.0673L64.5264 36.0713C64.4204 36.8495 63.7427 37.4292 62.9385 37.4319L62.9431 37.4276Z" fill="black"/>
<path d="M64.6841 18.9891C63.8558 18.9919 63.1661 18.3813 63.0791 17.5802L62.543 12.2823C62.4516 11.3908 61.9142 10.6029 61.1086 10.1812C54.8015 7.12586 48.0788 4.97537 41.151 3.7842C40.3786 3.65709 39.8134 3.00288 39.8109 2.2407C39.8081 1.37642 40.5175 0.670877 41.4062 0.664039L41.4223 0.663987C41.5268 0.663644 41.6314 0.671157 41.732 0.69047C48.9783 1.96709 56.0102 4.22649 62.6201 7.39483C64.3883 8.30831 65.5642 10.0291 65.7475 11.9731L66.2835 17.2592L66.2795 17.2632C66.3251 17.6755 66.1938 18.0924 65.9254 18.4154C65.653 18.7345 65.2637 18.9401 64.8375 18.9807C64.7853 18.9848 64.7324 18.989 64.6841 18.9891Z" fill="black"/>
<path d="M39.0169 10.5519C38.7797 10.5527 38.5463 10.5024 38.3329 10.4088C37.6402 10.1125 37.2518 9.38311 37.4022 8.65579C37.5527 7.9285 38.1983 7.40388 38.9583 7.39746L38.9744 7.39741C39.4127 7.3999 39.8314 7.56746 40.146 7.86499C40.6059 8.31134 40.7448 8.98661 40.4975 9.57275C40.2501 10.1629 39.6683 10.5458 39.0169 10.548L39.0169 10.5519Z" fill="black"/>
<path d="M66.0267 16.569C65.8651 16.326 65.6352 16.1264 65.3654 16.0015C57.0692 12.1434 48.3261 9.26886 39.3241 7.44406C39.0988 7.40158 38.8696 7.40233 38.6446 7.44629C29.6434 9.33016 20.9113 12.262 12.624 16.1746C12.355 16.3012 12.1305 16.5023 11.9704 16.7464C9.65399 20.3329 9.50505 26.4266 13.0013 29.4401C13.586 29.9411 14.4547 29.9618 15.0643 29.4884C18.9308 26.4899 25.0497 23.6414 33.256 21.0137C33.8143 20.839 34.227 20.378 34.3378 19.8158L34.4287 19.3441C34.4841 19.0611 34.6602 18.8091 34.909 18.655C35.1618 18.4971 35.4632 18.4489 35.753 18.5187C44.5099 20.6389 56.3476 24.2379 63.0153 29.3393C63.6281 29.8087 64.4925 29.7823 65.0739 29.2775C68.5663 26.2489 68.3815 20.1523 66.0255 16.5692L66.0267 16.569Z" fill="black"/>
<path d="M63.5579 70.4453C62.3876 69.1488 60.5842 68.589 58.8645 68.9954C45.8902 71.9451 32.3947 71.9501 19.4176 69.007C17.7235 68.6432 15.9601 69.2108 14.8222 70.4913C13.6884 71.7718 13.3565 73.5565 13.9689 75.1455C17.0267 83.0201 26.8956 88.111 39.1033 88.1172L39.2642 88.1167C51.4801 88.0766 61.3436 82.9725 64.4183 75.0896C65.0364 73.5044 64.7041 71.7183 63.5579 70.4453Z" fill="black"/>
</svg>
