<svg width="85" height="89" viewBox="0 0 85 89" fill="none" xmlns="http://www.w3.org/2000/svg">
<path d="M42.1215 58.9242C37.3563 58.8848 32.7825 57.0965 29.2982 53.922C25.8139 50.7474 23.6761 46.4093 23.303 41.7705L22.8205 36.8849L22.8205 36.8809C22.7789 36.4686 22.9062 36.0517 23.1786 35.7327C23.451 35.4096 23.8404 35.204 24.2665 35.1673C25.1509 35.0819 25.9371 35.7157 26.0203 36.5798L26.5028 41.4654C26.8256 46.6972 29.873 51.4015 34.5779 53.9198C39.2828 56.4382 44.9811 56.4196 49.6689 53.8703C54.3532 51.3211 57.3736 46.5968 57.658 41.3632L58.1085 36.4745C58.1861 35.61 58.9681 34.971 59.853 35.0505C60.7379 35.1301 61.3918 35.8941 61.3102 36.7586L60.8598 41.6472C60.5172 46.292 58.4002 50.6439 54.9285 53.8449C51.4607 57.0424 46.8903 58.8574 42.1215 58.9242Z" fill="black"/>
<path d="M42.1127 51.2324C40.1825 51.2113 38.2909 50.6832 36.639 49.7025C35.8695 49.265 35.605 48.3034 36.0529 47.5516C36.5008 46.7998 37.4851 46.5412 38.2545 46.9787C40.5996 48.4441 43.6074 48.4343 45.9429 46.9534C46.7095 46.5109 47.6955 46.763 48.1483 47.5119C48.6011 48.2608 48.3429 49.2241 47.5763 49.6666C45.9309 50.6581 44.0428 51.1985 42.1127 51.2324Z" fill="black"/>
<path d="M24.2498 48.5294C20.5944 48.4785 17.3182 46.3286 15.8839 43.045C14.3365 39.6008 15.0391 35.5874 17.676 32.8482C17.9645 32.5212 18.382 32.3273 18.8203 32.3102C19.2626 32.293 19.6934 32.4566 20.008 32.7581C20.3266 33.0595 20.5009 33.4754 20.4943 33.9036C20.4876 34.3357 20.296 34.7489 19.9712 35.0406C18.2441 36.8613 17.7984 39.5146 18.8353 41.7819C19.9297 44.4379 22.8698 45.8897 25.7105 45.1693C26.5581 44.9269 27.4483 45.3954 27.7004 46.2235C27.9564 47.0516 27.4808 47.9214 26.6371 48.1795C25.8618 48.4059 25.058 48.5267 24.2498 48.5294Z" fill="black"/>
<path d="M59.9689 48.4122C59.1606 48.4149 58.352 48.3036 57.5752 48.0822C57.1567 47.9736 56.8019 47.7037 56.5876 47.3351C56.3773 46.9665 56.3236 46.5267 56.4469 46.1217C56.5702 45.7166 56.8546 45.3739 57.236 45.1762C57.6173 44.9746 58.0676 44.9378 58.4821 45.066C61.3274 45.7717 64.266 44.2967 65.339 41.6257C66.3529 39.3517 65.8818 36.7054 64.1467 34.8961C63.8482 34.5985 63.682 34.1983 63.6847 33.7818C63.6873 33.3654 63.8589 32.9641 64.1636 32.6724C64.7969 32.0614 65.8183 32.0698 66.4396 32.6885C69.0823 35.4101 69.8152 39.407 68.3025 42.8572C66.9019 46.1617 63.6319 48.3452 59.9689 48.4122Z" fill="black"/>
<path d="M54.6507 68.4061C54.4335 68.4068 54.2163 68.3643 54.0149 68.2825C53.0204 67.8693 52.0541 67.4875 51.116 67.137C48.8252 66.3313 47.2663 64.2426 47.1821 61.8621L47.1628 55.985C47.1599 55.1168 47.8774 54.4112 48.7661 54.4083C49.6547 54.4054 50.3768 55.1062 50.3796 55.9744L50.3989 61.8515C50.4709 62.9395 51.2178 63.8721 52.2805 64.2026C53.2387 64.5569 54.2412 64.9544 55.272 65.3831C55.9767 65.6754 56.3731 66.4088 56.2227 67.14C56.0723 67.8751 55.4146 68.3998 54.6506 68.4023L54.6507 68.4061Z" fill="black"/>
<path d="M15.0669 88.2259L11.0137 88.2392C10.5472 88.2407 10.1002 88.0418 9.79349 87.6971C9.48675 87.3524 9.34853 86.8932 9.41941 86.4373C10.7654 77.5385 13.1676 74.3252 16.8587 71.7988C21.6258 68.7464 26.7244 66.2193 32.062 64.2689C33.1104 63.9237 33.8392 62.9864 33.896 61.9057L33.8767 56.0286C33.8739 55.1604 34.5913 54.4548 35.48 54.4519C36.3687 54.449 37.0907 55.1498 37.0936 56.018L37.1129 61.8952C37.0523 64.2565 35.5311 66.3475 33.2699 67.18C28.1652 69.0431 23.2874 71.4516 18.7253 74.362C15.9128 76.2924 14.099 78.6554 12.9057 85.09L15.057 85.0829C15.9456 85.08 16.6677 85.7808 16.6705 86.649C16.6734 87.5173 15.9556 88.223 15.0669 88.2259Z" fill="black"/>
<path d="M73.4534 88.0344L64.4783 88.0639C63.5896 88.0668 62.8675 87.3659 62.8647 86.4977C62.8618 85.6295 63.5793 84.9239 64.468 84.921L71.5451 84.8978C71.1615 81.9763 70.0988 79.1786 68.4341 76.7248C67.901 76.0312 68.0385 75.0446 68.7485 74.5238C69.4585 73.9989 70.4683 74.1371 71.0014 74.8307C72.9397 77.3229 74.1857 80.8388 75.0438 86.2303C75.1136 86.6818 74.9784 87.1419 74.6739 87.4886C74.3655 87.8354 73.9198 88.0329 73.4534 88.0344Z" fill="black"/>
<path d="M83.9196 9.34603C83.9787 5.29159 80.6664 1.95524 76.5164 1.88639C75.885 1.88846 75.258 1.97302 74.6514 2.14C73.3039 0.796965 71.4597 0.0407838 69.5337 0.0471029C65.3843 0.143217 62.0939 3.5012 62.1795 7.55909C62.1803 7.80658 62.1972 8.0501 62.2222 8.29752C61.4832 8.58281 60.801 8.98968 60.2076 9.50627C58.5767 8.78483 56.7583 8.55508 54.99 8.84766C54.1533 7.53433 52.8714 6.55635 51.37 6.07813C49.6555 5.64376 47.8345 5.8226 46.2446 6.5821C45.0512 5.59209 43.5254 5.06676 41.9613 5.09935C40.3971 5.07698 38.8748 5.61233 37.6879 6.61017C36.093 5.86505 34.2709 5.69424 32.5594 6.13985C31.0571 6.628 29.7816 7.61429 28.9535 8.93309C27.1874 8.65209 25.3706 8.89377 23.7444 9.6259C23.1476 9.11321 22.4627 8.71082 21.7219 8.4304C21.7453 8.18283 21.7605 7.93921 21.7597 7.6917C21.8188 3.63324 18.5065 0.29699 14.3564 0.228137C12.4303 0.234457 10.5911 1.00263 9.2526 2.35457C8.64488 2.19157 8.01733 2.11113 7.386 2.1132C3.23656 2.20932 -0.0538371 5.5673 0.0318313 9.62126C0.0372833 11.283 0.597489 12.8958 1.62726 14.2164C1.22004 15.1134 1.01413 16.0845 1.01736 17.0666C0.965161 20.7675 3.98699 23.81 7.77511 23.8723C8.55519 23.8658 9.33078 23.7218 10.0578 23.4444C11.4767 24.5201 13.2837 24.9857 15.0643 24.7323C13.2935 27.9674 13.9352 31.1239 16.9639 33.7972C17.6412 35.5628 18.9849 37.0041 20.7247 37.8234C21.5745 38.2095 22.504 38.4068 23.4449 38.3998C24.2652 38.3971 25.0809 38.2451 25.844 37.9519C29.5603 36.9537 32.3087 33.8882 32.8313 30.1582C36.2489 30.0684 39.5219 28.7652 42.0316 26.4941C44.5563 28.7487 47.8337 30.0305 51.2559 30.0978C51.7908 33.8046 54.5392 36.8481 58.2378 37.8259C59.9127 38.4765 61.7823 38.4232 63.4124 37.6832C65.1428 36.8526 66.4811 35.4025 67.1468 33.6324C70.1579 30.9393 70.7788 27.7826 68.9869 24.5553C70.769 24.797 72.573 24.3196 73.9848 23.2346C74.7135 23.5072 75.49 23.6461 76.2702 23.6475C80.0579 23.5604 83.0597 20.498 82.9832 16.7976C82.98 15.8154 82.7677 14.8458 82.3546 13.9514C83.3756 12.6242 83.9251 11.0078 83.9196 9.34603Z" fill="black"/>
<path d="M65.9165 70.5888C64.1638 69.5378 62.3552 68.5734 60.5026 67.6995C59.7374 67.3366 58.8094 67.6186 58.3936 68.3468C56.8463 71.0586 53.371 74.4172 40.1478 76.3266C32.5313 77.3967 25.3918 80.5826 19.5773 85.5084C19.1083 85.9539 18.9618 86.634 19.209 87.2264C19.4522 87.8188 20.0406 88.2058 20.696 88.2076L57.0626 88.0883C57.4567 88.087 57.8342 87.9443 58.127 87.6919C62.4053 83.9693 65.1017 77.3051 66.6014 72.3742C66.8123 71.6939 66.5329 70.964 65.9165 70.5888Z" fill="black"/>
<path d="M64.0378 62.7333C63.0928 62.7364 61.5513 62.3093 60.2247 59.9644L60.2247 59.9683C59.2819 58.176 58.7166 56.2214 58.5531 54.2145C58.1163 49.7609 59.3516 45.0975 62.5554 44.7884C65.7914 44.4792 67.8765 48.841 68.3215 53.2946C68.5532 55.2974 68.3789 57.3212 67.8022 59.2559C66.8705 62.0758 65.2197 62.6391 64.3152 62.7245C64.2348 62.7287 64.1383 62.7329 64.0378 62.7333ZM62.827 47.915C62.4376 48.1009 61.3871 50.2415 61.753 53.9135C62.1188 57.5855 63.5567 59.4862 64.0435 59.5945C64.437 59.4086 65.4835 57.2719 65.1176 53.596C64.7517 49.9241 63.3139 48.0194 62.8271 47.9189L62.827 47.915Z" fill="black"/>
<path d="M20.276 62.8769C20.1755 62.8772 20.083 62.8775 19.9985 62.866C19.0975 62.7865 17.443 62.2341 16.4929 59.4204C15.9035 57.4934 15.7159 55.4669 15.9345 53.4665C16.3421 49.0062 18.4388 44.6347 21.6446 44.9227C24.8504 45.2107 26.1162 49.8659 25.7087 54.3223C25.5585 56.3303 25.0059 58.2885 24.0749 60.083C22.7677 62.4405 21.229 62.8738 20.276 62.8769ZM21.3251 48.0472C20.9033 48.1586 19.474 50.0726 19.1403 53.7469C18.8025 57.4212 19.859 59.5588 20.318 59.742C20.7358 59.6267 22.1691 57.7127 22.5029 54.0422C22.8407 50.3719 21.7882 48.2343 21.3291 48.0472L21.3251 48.0472Z" fill="black"/>
</svg>
